<?xml version="1.0" encoding="UTF-8"?><svg id="Layer_2" xmlns="http://www.w3.org/2000/svg" xmlns:xlink="http://www.w3.org/1999/xlink" viewBox="0 0 198 198"><defs><style>.cls-1{fill:#fff;}.cls-2{fill:#e8280b;filter:url(#drop-shadow-1);}</style><filter id="drop-shadow-1" filterUnits="userSpaceOnUse"><feOffset dx="-1" dy="2"/><feGaussianBlur result="blur" stdDeviation="1"/><feFlood flood-color="#000" flood-opacity=".5"/><feComposite in2="blur" operator="in"/><feComposite in="SourceGraphic"/></filter></defs><g id="bolivia-cultural-icon"><polygon class="cls-2" points="168.45 56.43 168.45 29.14 141.16 29.14 141.16 1.85 59.31 1.85 59.31 29.14 32.02 29.14 32.02 56.43 4.74 56.43 4.74 138.28 32.02 138.28 32.02 165.57 59.31 165.57 59.31 192.85 141.16 192.85 141.16 165.57 168.45 165.57 168.45 138.28 195.74 138.28 195.74 56.43 168.45 56.43"/><g><path class="cls-1" d="M84.73,106.72c-1.21,0-2.27,.61-2.91,1.53-1.84,1.72-4.3,2.77-7.02,2.77-5.28,0-9.63-3.99-10.21-9.12-.02-.23-.07-.82-.11-1.32l.05,.14c0-5.67,4.6-10.27,10.27-10.27,2.86,0,5.44,1.17,7.3,3.05,0,0,.01,0,.02,.01,.65,.7,1.57,1.15,2.6,1.15,1.95,0,3.53-1.58,3.53-3.54,0-1.05-.45-1.99-1.18-2.63-3.14-3.15-7.48-5.1-12.28-5.1-5.66,0-10.69,2.72-13.86,6.92l.04,.12c-3.14-4.29-8.11-6.95-13.86-6.95-3.82,0-7.35,1.24-10.22,3.33v-10.21h0v-.05c0-1.97-1.59-3.56-3.56-3.56s-3.56,1.59-3.56,3.56c0,.01,0,.03,0,.05h0v24.11h0s0,.05,0,.07c0-.05,0-.11,0-.16,0,.06,0,.13,0,.19,0,4.62,1.81,8.82,4.76,11.92,.12,.14,.25,.28,.4,.41,.01,.01,.02,.02,.03,.03,.03,.03,.06,.06,.1,.08h0s.05,.04,.08,.06c3.11,2.97,7.33,4.79,11.97,4.79,5.57,0,10.52-2.62,13.69-6.7,3.24,4.09,8.35,6.69,13.99,6.69,4.87,0,9.27-2.01,12.42-5.25,.09-.1,.16-.2,.2-.31,.52-.62,.84-1.42,.84-2.29,0-1.95-1.58-3.53-3.53-3.53Zm-54.92-6.83c.01-.28,.04-.56,.06-.84-.03,.28-.05,.56-.06,.84Zm.07-.86c.08-.84,.23-1.66,.43-2.45-.2,.8-.35,1.62-.43,2.45Zm17.24,12.01c-2.8,0-5.34-1.13-7.2-2.95,.02,.02,.03,.03,.05,.05v.02h.01s0,.02,0,.03c.51,.61,.81,1.39,.81,2.25h0c0-.83-.31-1.61-.81-2.22,0-.01,0-.02,0-.03h0s0-.01-.01-.02c-1.92-1.87-3.12-4.48-3.12-7.37,0-5.67,4.6-10.27,10.27-10.27,5.37,0,9.52,4.38,9.97,9.64,.02,.21,.02,.37,.04,.58,0,.62,.06,.86,.12,1.63v.03c-.78,4.89-5.02,8.63-10.13,8.63Z"/><g><g><path class="cls-1" d="M96.04,84.54c0-.34,.12-.63,.36-.87,.24-.24,.53-.36,.87-.36s.63,.12,.87,.36c.24,.24,.36,.53,.36,.87v3.56c1.03-.78,2.22-1.16,3.57-1.16,1.67,0,3.1,.59,4.28,1.77,1.18,1.18,1.77,2.6,1.77,4.27s-.59,3.1-1.77,4.28c-1.18,1.18-2.6,1.77-4.28,1.77s-3.1-.59-4.27-1.77c-1.16-1.16-1.75-2.57-1.77-4.22v-8.5Zm3.5,10.98c.7,.7,1.55,1.05,2.54,1.05s1.84-.35,2.54-1.05c.7-.7,1.05-1.54,1.05-2.54s-.35-1.84-1.05-2.54c-.7-.7-1.54-1.05-2.54-1.05s-1.84,.35-2.54,1.05c-.6,.6-.94,1.3-1.03,2.11v.46c0,.07,0,.14-.01,.22,.05,.89,.39,1.65,1.04,2.29Z"/><path class="cls-1" d="M120.29,88.71c1.18,1.18,1.77,2.6,1.77,4.27s-.59,3.1-1.77,4.28c-1.18,1.18-2.6,1.77-4.28,1.77s-3.09-.59-4.27-1.77c-1.18-1.18-1.77-2.61-1.77-4.28s.59-3.09,1.77-4.27c1.18-1.18,2.6-1.77,4.27-1.77s3.1,.59,4.28,1.77Zm-4.28,.68c-.99,0-1.84,.35-2.54,1.05-.7,.7-1.05,1.54-1.05,2.54s.35,1.84,1.05,2.54c.7,.7,1.55,1.05,2.54,1.05s1.84-.35,2.54-1.05c.7-.7,1.05-1.55,1.05-2.54s-.35-1.84-1.05-2.54c-.7-.7-1.54-1.05-2.54-1.05Z"/><path class="cls-1" d="M126.01,83.72c.24,.24,.36,.53,.36,.87v13.2c0,.34-.12,.63-.36,.87s-.53,.37-.87,.37-.63-.12-.87-.37c-.24-.24-.36-.54-.36-.87v-13.2c0-.34,.12-.63,.36-.87,.24-.24,.54-.36,.87-.36,.34,0,.63,.12,.87,.36Z"/><path class="cls-1" d="M129.38,85.73c-.34,0-.63-.12-.87-.36-.24-.24-.36-.53-.36-.87s.12-.63,.36-.87c.24-.24,.53-.36,.87-.36s.63,.12,.87,.36c.24,.24,.36,.53,.36,.87s-.12,.63-.36,.87c-.24,.24-.53,.36-.87,.36Zm0,13.3c-.34,0-.63-.12-.87-.37-.24-.24-.36-.54-.36-.87v-9.69c0-.34,.12-.63,.36-.87,.24-.24,.53-.36,.87-.36s.63,.12,.87,.36c.24,.24,.36,.53,.36,.87v9.69c0,.34-.12,.63-.36,.87-.24,.24-.53,.37-.87,.37Z"/><path class="cls-1" d="M139.57,98.23c-.06,.16-.15,.31-.28,.43-.23,.24-.52,.37-.86,.37s-.61-.12-.85-.37c-.13-.12-.22-.26-.28-.41l-4.71-9.43c-.14-.2-.22-.43-.22-.69,0-.33,.12-.61,.36-.85,.24-.24,.52-.36,.85-.36s.63,.12,.86,.35c.08,.08,.14,.16,.19,.25h.01l3.78,7.57,3.78-7.57h.01c.06-.08,.12-.17,.21-.25,.23-.23,.52-.35,.85-.35s.62,.12,.86,.36c.23,.24,.35,.52,.35,.85,0,.27-.08,.5-.23,.7l-4.69,9.4Z"/><path class="cls-1" d="M147.55,85.73c-.34,0-.63-.12-.87-.36-.24-.24-.36-.53-.36-.87s.12-.63,.36-.87c.24-.24,.53-.36,.87-.36s.63,.12,.87,.36c.24,.24,.36,.53,.36,.87s-.12,.63-.36,.87c-.24,.24-.53,.36-.87,.36Zm0,13.3c-.34,0-.63-.12-.87-.37-.24-.24-.36-.54-.36-.87v-9.69c0-.34,.12-.63,.36-.87,.24-.24,.53-.36,.87-.36s.63,.12,.87,.36c.24,.24,.36,.53,.36,.87v9.69c0,.34-.12,.63-.36,.87-.24,.24-.53,.37-.87,.37Z"/><path class="cls-1" d="M162.64,97.84c0,.47-.12,.78-.36,.94-.24,.16-.53,.25-.87,.25s-.63-.08-.87-.25c-.24-.16-.36-.47-.36-.92-1.03,.78-2.23,1.17-3.57,1.17-1.67,0-3.1-.59-4.28-1.77-1.18-1.18-1.77-2.61-1.77-4.28s.59-3.09,1.77-4.27c1.18-1.18,2.61-1.77,4.28-1.77s3.09,.59,4.27,1.77c1.16,1.16,1.75,2.57,1.77,4.22v4.91Zm-3.5-7.4c-.7-.7-1.55-1.05-2.54-1.05s-1.84,.35-2.54,1.05c-.7,.7-1.05,1.54-1.05,2.54s.35,1.84,1.05,2.54c.7,.7,1.54,1.05,2.54,1.05s1.84-.35,2.54-1.05c.59-.6,.94-1.3,1.03-2.11v-.46c0-.07,0-.14,.01-.22-.05-.89-.4-1.65-1.04-2.29Z"/></g><g><path class="cls-1" d="M106.28,107.8s0,.01,.01,.01c.23,.23,.35,.52,.35,.86s-.12,.61-.36,.85c-.24,.24-.52,.36-.85,.36s-.62-.12-.86-.36h-.01c-.69-.69-1.53-1.04-2.52-1.04s-1.83,.35-2.53,1.04c-.7,.7-1.05,1.54-1.05,2.53s.35,1.83,1.05,2.53c.7,.7,1.54,1.05,2.53,1.05s1.82-.34,2.52-1.04c0,0,.02-.02,.02-.03,.23-.23,.52-.35,.86-.35s.63,.12,.87,.35c.24,.24,.36,.53,.36,.86s-.12,.63-.36,.87c0,0-.02,.02-.02,.02-1.17,1.17-2.58,1.75-4.24,1.75s-3.08-.59-4.26-1.76c-1.17-1.17-1.76-2.59-1.76-4.26s.59-3.09,1.76-4.26c1.17-1.17,2.59-1.76,4.26-1.76s3.08,.58,4.24,1.75h-.01Z"/><path class="cls-1" d="M114.39,118.07c-1.7-.1-3.09-.69-4.18-1.79-1.16-1.16-1.74-2.55-1.76-4.19v-4.65c0-.47,.12-.82,.36-1.06,.24-.24,.53-.36,.87-.36s.63,.12,.87,.36c.24,.24,.36,.59,.36,1.04v4.65c0,.07,0,.14-.01,.22,.05,.88,.39,1.65,1.04,2.28,.7,.7,1.54,1.05,2.53,1.05h.05c.99,0,1.84-.35,2.53-1.05,.64-.63,.99-1.39,1.04-2.28,0-.07-.01-.14-.01-.22v-4.65c0-.45,.12-.8,.36-1.04,.24-.24,.53-.36,.87-.36s.63,.12,.87,.36c.24,.24,.36,.59,.36,1.06v4.65c-.01,1.64-.6,3.04-1.76,4.19-1.09,1.1-2.49,1.69-4.18,1.79h-.19Z"/><path class="cls-1" d="M124.42,102.83c.24,.24,.36,.53,.36,.87v13.14c0,.34-.12,.63-.36,.87-.24,.24-.53,.36-.87,.36s-.63-.12-.87-.36c-.24-.24-.36-.53-.36-.87v-13.14c0-.34,.12-.63,.36-.87,.24-.24,.53-.36,.87-.36,.33,0,.63,.12,.87,.36Z"/><path class="cls-1" d="M129.4,105.99v-2.29c0-.34,.12-.63,.36-.87,.24-.24,.53-.36,.87-.36s.63,.12,.87,.36c.24,.24,.36,.53,.36,.87v2.29h1.34c.34,0,.63,.12,.87,.36,.24,.24,.36,.53,.36,.87s-.12,.63-.36,.87c-.24,.24-.53,.36-.87,.36h-1.34v8.39c0,.34-.12,.63-.36,.87-.24,.24-.53,.36-.87,.36s-.63-.12-.87-.36c-.24-.24-.36-.53-.36-.87v-8.39h-1.39c-.34,0-.63-.12-.87-.36-.24-.24-.36-.53-.36-.87s.12-.63,.36-.87c.24-.24,.53-.36,.87-.36h1.39Z"/><path class="cls-1" d="M141.97,118.07c-1.7-.1-3.09-.69-4.18-1.79-1.16-1.16-1.74-2.55-1.76-4.19v-4.65c0-.47,.12-.82,.36-1.06,.24-.24,.53-.36,.87-.36s.63,.12,.87,.36c.24,.24,.36,.59,.36,1.04v4.65c0,.07,0,.14-.01,.22,.05,.88,.39,1.65,1.04,2.28,.7,.7,1.54,1.05,2.53,1.05h.05c.99,0,1.83-.35,2.53-1.05,.64-.63,.99-1.39,1.04-2.28,0-.07-.01-.14-.01-.22v-4.65c0-.45,.12-.8,.36-1.04,.24-.24,.53-.36,.87-.36s.63,.12,.87,.36c.24,.24,.36,.59,.36,1.06v4.65c-.01,1.64-.6,3.04-1.76,4.19-1.09,1.1-2.49,1.69-4.18,1.79h-.19Z"/><path class="cls-1" d="M155.93,106.01c.34,0,.63,.12,.87,.36,.24,.24,.36,.53,.36,.87s-.12,.63-.36,.87c-.24,.24-.53,.36-.87,.36h-.01c-.99,0-1.83,.35-2.53,1.05-.64,.63-.99,1.4-1.04,2.28,0,.08,.01,.14,.01,.22v4.65c0,.45-.12,.8-.36,1.04-.24,.24-.53,.36-.87,.36s-.63-.12-.87-.36c-.24-.24-.36-.59-.36-1.06v-4.66c.01-1.64,.6-3.04,1.76-4.2,1.11-1.11,2.53-1.7,4.27-1.78Z"/><path class="cls-1" d="M169.05,116.89c0,.46-.12,.78-.36,.94-.24,.16-.53,.24-.87,.24s-.63-.08-.87-.24c-.24-.17-.36-.47-.36-.92-1.03,.77-2.22,1.16-3.56,1.16-1.67,0-3.09-.59-4.26-1.76-1.17-1.17-1.76-2.59-1.76-4.26s.59-3.08,1.76-4.26c1.17-1.17,2.59-1.76,4.26-1.76s3.08,.59,4.25,1.76c1.16,1.16,1.75,2.56,1.76,4.2v4.9h0Zm-3.48-7.36c-.7-.7-1.54-1.05-2.53-1.05s-1.83,.35-2.53,1.04c-.69,.7-1.04,1.54-1.04,2.53s.35,1.83,1.04,2.53c.7,.7,1.54,1.05,2.53,1.05s1.83-.35,2.53-1.05c.59-.6,.93-1.29,1.03-2.1v-.46c0-.07,0-.14,0-.22-.05-.88-.39-1.64-1.04-2.28Z"/><path class="cls-1" d="M172.79,102.83c.24,.24,.36,.53,.36,.87v13.14c0,.34-.12,.63-.36,.87-.24,.24-.53,.36-.87,.36s-.63-.12-.87-.36c-.24-.24-.36-.53-.36-.87v-13.14c0-.34,.12-.63,.36-.87,.24-.24,.53-.36,.87-.36,.34,0,.63,.12,.87,.36Z"/></g></g></g></g></svg>